<?xml version="1.0" encoding="UTF-8" standalone="no"?>
<svg width="78px" height="90px" viewBox="0 0 78 90" version="1.1" xmlns="http://www.w3.org/2000/svg" xmlns:xlink="http://www.w3.org/1999/xlink">
    <!-- Generator: Sketch 40 (33762) - http://www.bohemiancoding.com/sketch -->
    <title>Group</title>
    <desc>Created with Sketch.</desc>
    <defs></defs>
    <g id="Page-1" stroke="none" stroke-width="1" fill="none" fill-rule="evenodd">
        <g id="noun_Worker_1200568" fill="#000000">
            <g id="Group">
                <path d="M70.097,85.048 L70.097,90 C74.408,88.399 77.057,85.114 77.057,78.383 C77.057,69.525 72.472,61.743 65.548,57.272 L65.548,78.093 C68.256,79.283 70.097,82 70.097,85.048 L70.097,85.048 Z" id="Shape"></path>
                <path d="M21.557,77.46 L56.442,77.46 L56.442,55.969 C56.442,55.173 56.666,54.435 57.026,53.783 C56.116,53.595 55.191,53.45 54.249,53.366 C54.146,57.948 39.002,69.256 39.002,69.256 C39.002,69.256 23.855,57.948 23.752,53.366 C22.809,53.45 21.884,53.595 20.974,53.783 C21.334,54.434 21.557,55.173 21.557,55.969 L21.557,77.46 L21.557,77.46 Z" id="Shape"></path>
                <path d="M12.452,78.093 L12.452,57.271 C5.529,61.745 0.943,69.524 0.943,78.382 C0.943,85.115 3.593,88.399 7.903,89.999 L7.903,85.047 C7.903,82 9.745,79.283 12.452,78.093 L12.452,78.093 Z" id="Shape"></path>
                <path d="M39,53.366 C30.214,53.366 22.875,41.792 21.088,32.115 L18.459,32.115 C20.367,43.22 28.838,56.647 39,56.647 C49.166,56.647 57.635,43.218 59.542,32.114 L56.914,32.114 C55.128,41.794 47.79,53.366 39,53.366 L39,53.366 Z" id="Shape"></path>
                <path d="M33.225,14.862 C33.132,14.879 33.04,14.886 32.949,14.886 C32.195,14.886 31.526,14.346 31.392,13.578 L29.684,3.884 C22.969,7.287 18.365,14.25 18.365,22.293 L17.539,22.293 C15.867,22.293 14.513,23.648 14.513,25.32 C14.513,26.992 15.867,28.348 17.539,28.348 L60.46,28.348 C62.133,28.348 63.487,26.992 63.487,25.32 C63.487,23.648 62.133,22.293 60.46,22.293 L59.636,22.293 C59.636,14.25 55.031,7.288 48.317,3.882 L46.607,13.579 C46.471,14.347 45.804,14.887 45.05,14.887 C44.959,14.887 44.867,14.88 44.775,14.863 C43.914,14.71 43.34,13.89 43.493,13.029 L45.444,1.953 C44.712,0.781 43.412,0 41.928,0 L36.071,0 C34.587,0 33.289,0.781 32.555,1.952 L34.508,13.028 C34.66,13.889 34.086,14.708 33.225,14.862 L33.225,14.862 Z" id="Shape"></path>
                <circle id="Oval" cx="16.396" cy="84.717" r="3.768"></circle>
                <circle id="Oval" cx="60.976" cy="84.717" r="3.768"></circle>
            </g>
        </g>
    </g>
</svg>