<?xml version="1.0" encoding="UTF-8" standalone="no"?>
<svg width="66px" height="73px" viewBox="0 0 66 73" version="1.1" xmlns="http://www.w3.org/2000/svg" xmlns:xlink="http://www.w3.org/1999/xlink">
    <!-- Generator: Sketch 40 (33762) - http://www.bohemiancoding.com/sketch -->
    <title>Group</title>
    <desc>Created with Sketch.</desc>
    <defs></defs>
    <g id="Page-1" stroke="none" stroke-width="1" fill="none" fill-rule="evenodd">
        <g id="noun_Pound_1736354" fill="#000000">
            <g id="Group">
                <path d="M40.5366035,58.8179431 L31.554,52.714 C28.158,50.048 19.938,43.276 19.868,40.147 C8.854,41.153 0.228,50.412 0.228,61.69 C0.228,71.495 6.75,72.812 15.691,72.971 C53.9964652,72.971 33.0700051,72.971 33.0700051,72.971 C33.0700051,72.971 54.387923,69.473656 55.2380635,68.7018315 L40.5366035,58.8179431 Z" id="Shape"></path>
                <path d="M34.448,52.713 C34.448,52.713 20.083412,60.7705095 22.8300077,63.9884349 C24.1930396,65.5853701 16.4498079,72.969 16.4498079,72.969 C16.4498079,72.969 16.4498079,72.969 50.309,72.969 C59.248,72.81 65.77,71.49 65.77,61.688 C65.771,50.411 57.146,41.152 46.13,40.146 C46.062,43.276 37.844,50.047 34.448,52.713 Z" id="Shape"></path>
                <path d="M33.007,42.977 C42.97,42.977 51.045,27.997 51.045,18.036 C51.045,8.075 42.97,0 33.007,0 C23.045,0 14.97,8.075 14.97,18.036 C14.97,27.997 23.045,42.977 33.007,42.977 L33.007,42.977 Z" id="Shape"></path>
            </g>
        </g>
    </g>
</svg>